HIERARCHY
ROOT Hips
{
	OFFSET 0.000000 83.214638 0.000000
	CHANNELS 6 Xposition Yposition Zposition Xrotation Yrotation Zrotation
	JOINT Pelvis
	{
		OFFSET 0.000000 0.000000 0.000000
		CHANNELS 3 Xrotation Yrotation Zrotation
		JOINT LeftUpLeg
		{
			OFFSET 8.479700 -4.795502 -0.379100
			CHANNELS 3 Xrotation Yrotation Zrotation
			JOINT LeftLeg
			{
				OFFSET 0.024144 -32.555107 0.112900
				CHANNELS 3 Xrotation Yrotation Zrotation
				JOINT LeftFoot
				{
					OFFSET -0.024144 -32.638630 -3.012600
					CHANNELS 3 Xrotation Yrotation Zrotation
					JOINT LeftToeBase
					{
						OFFSET 0.970200 -13.225400 11.864200
						CHANNELS 3 Xrotation Yrotation Zrotation
						End Site
						{
							OFFSET 0.000000 12.319262 0.000000
						}
					}
					JOINT LFootTongue
					{
						OFFSET 1.142400 -1.059800 6.665200
						CHANNELS 3 Xrotation Yrotation Zrotation
						End Site
						{
							OFFSET 0.000000 12.319262 0.000000
						}
					}
				}
				JOINT LeftPantLeg
				{
					OFFSET 0.918482 -16.533964 -2.284700
					CHANNELS 3 Xrotation Yrotation Zrotation
					End Site
					{
						OFFSET 0.350399 24.744368 0.000000
					}
				}
			}
		}
		JOINT RightUpLeg
		{
			OFFSET -8.479700 -4.795502 -0.379100
			CHANNELS 3 Xrotation Yrotation Zrotation
			JOINT RightLeg
			{
				OFFSET -0.023144 -32.555092 0.112900
				CHANNELS 3 Xrotation Yrotation Zrotation
				JOINT RightFoot
				{
					OFFSET 0.023144 -32.638641 -3.012700
					CHANNELS 3 Xrotation Yrotation Zrotation
					JOINT RightToeBase
					{
						OFFSET -0.970200 -13.225400 11.864200
						CHANNELS 3 Xrotation Yrotation Zrotation
						End Site
						{
							OFFSET 0.000000 12.319244 0.000000
						}
					}
					JOINT RFootTongue
					{
						OFFSET -1.142200 -1.059800 6.665200
						CHANNELS 3 Xrotation Yrotation Zrotation
						End Site
						{
							OFFSET 0.000000 12.319243 0.000000
						}
					}
				}
				JOINT RightPantLeg
				{
					OFFSET -0.919482 -16.533978 -2.284800
					CHANNELS 3 Xrotation Yrotation Zrotation
					End Site
					{
						OFFSET -0.350400 24.744419 0.000000
					}
				}
			}
		}
	}
	JOINT Spine
	{
		OFFSET 0.000000 7.722000 1.166200
		CHANNELS 3 Xrotation Yrotation Zrotation
		JOINT Spine1
		{
			OFFSET 0.000000 12.024101 0.248800
			CHANNELS 3 Xrotation Yrotation Zrotation
			JOINT Spine2
			{
				OFFSET 0.000000 11.502998 -0.491200
				CHANNELS 3 Xrotation Yrotation Zrotation
				JOINT Neck
				{
					OFFSET 0.000000 18.430702 -3.123100
					CHANNELS 3 Xrotation Yrotation Zrotation
					JOINT Head
					{
						OFFSET 0.000000 9.051102 1.034000
						CHANNELS 3 Xrotation Yrotation Zrotation
						JOINT HairB
						{
							OFFSET 0.208400 24.786102 24.822300
							CHANNELS 3 Xrotation Yrotation Zrotation
							End Site
							{
								OFFSET 0.000000 32.263779 0.000000
							}
						}
						JOINT HairA
						{
							OFFSET -7.081100 24.428299 23.196600
							CHANNELS 3 Xrotation Yrotation Zrotation
							End Site
							{
								OFFSET 0.000000 32.263779 0.000000
							}
						}
						JOINT Hat
						{
							OFFSET 16.728800 15.048294 -15.439601
							CHANNELS 3 Xrotation Yrotation Zrotation
							End Site
							{
								OFFSET 0.000000 32.263779 0.000000
							}
						}
					}
				}
				JOINT LeftShoulder
				{
					OFFSET 6.197800 13.665199 -4.064700
					CHANNELS 3 Xrotation Yrotation Zrotation
					JOINT LeftArm
					{
						OFFSET 7.778100 -0.187103 -1.709300
						CHANNELS 3 Xrotation Yrotation Zrotation
						JOINT LeftForeArm
						{
							OFFSET 22.049376 0.000000 0.000000
							CHANNELS 3 Xrotation Yrotation Zrotation
							JOINT LeftHand
							{
								OFFSET 23.009392 0.000000 0.000000
								CHANNELS 3 Xrotation Yrotation Zrotation
								JOINT LeftHandThumb1
								{
									OFFSET 3.507191 -2.063065 3.133727
									CHANNELS 3 Xrotation Yrotation Zrotation
									JOINT LeftHandThumb2
									{
										OFFSET 3.101337 -1.790558 1.790558
										CHANNELS 3 Xrotation Yrotation Zrotation
										JOINT LeftHandThumb3
										{
											OFFSET 3.058640 -1.765907 1.765906
											CHANNELS 3 Xrotation Yrotation Zrotation
											End Site
											{
												OFFSET -0.415260 3.926476 -0.049563
											}
										}
									}
								}
								JOINT LeftHandIndex1
								{
									OFFSET 11.334419 -0.901459 3.706815
									CHANNELS 3 Xrotation Yrotation Zrotation
									JOINT LeftHandIndex2
									{
										OFFSET 3.283112 0.000000 0.000000
										CHANNELS 3 Xrotation Yrotation Zrotation
										JOINT LeftHandIndex3
										{
											OFFSET 3.323853 0.000000 0.000000
											CHANNELS 3 Xrotation Yrotation Zrotation
											End Site
											{
												OFFSET -1.135597 3.097809 0.402452
											}
										}
									}
								}
								JOINT LeftHandMiddle1
								{
									OFFSET 11.335861 0.000000 0.000000
									CHANNELS 3 Xrotation Yrotation Zrotation
									JOINT LeftHandMiddle2
									{
										OFFSET 3.410492 0.000000 0.000000
										CHANNELS 3 Xrotation Yrotation Zrotation
										JOINT LeftHandMiddle3
										{
											OFFSET 3.312172 0.000000 0.000000
											CHANNELS 3 Xrotation Yrotation Zrotation
											End Site
											{
												OFFSET -1.150200 3.080154 0.400270
											}
										}
									}
								}
								JOINT LeftHandRing1
								{
									OFFSET 11.514786 -0.013176 -3.003090
									CHANNELS 3 Xrotation Yrotation Zrotation
									JOINT LeftHandRing2
									{
										OFFSET 3.053307 0.000000 0.000000
										CHANNELS 3 Xrotation Yrotation Zrotation
										JOINT LeftHandRing3
										{
											OFFSET 3.295807 0.000000 0.000000
											CHANNELS 3 Xrotation Yrotation Zrotation
											End Site
											{
												OFFSET -1.281006 3.013344 0.375733
											}
										}
									}
								}
								JOINT LeftHandPinky1
								{
									OFFSET 10.518692 -0.960396 -5.730441
									CHANNELS 3 Xrotation Yrotation Zrotation
									JOINT LeftHandPinky2
									{
										OFFSET 2.861649 0.000000 0.000000
										CHANNELS 3 Xrotation Yrotation Zrotation
										JOINT LeftHandPinky3
										{
											OFFSET 2.863380 0.000000 0.000000
											CHANNELS 3 Xrotation Yrotation Zrotation
											End Site
											{
												OFFSET -0.843597 2.711159 0.369971
											}
										}
									}
								}
							}
							JOINT LSleeve
							{
								OFFSET 6.676277 -0.344902 -1.011730
								CHANNELS 3 Xrotation Yrotation Zrotation
								End Site
								{
									OFFSET 0.000000 14.885353 0.000000
								}
							}
						}
					}
				}
				JOINT RightShoulder
				{
					OFFSET -6.197800 13.665199 -4.064700
					CHANNELS 3 Xrotation Yrotation Zrotation
					JOINT RightArm
					{
						OFFSET -7.778100 -0.187103 -1.709300
						CHANNELS 3 Xrotation Yrotation Zrotation
						JOINT RightForeArm
						{
							OFFSET -22.049376 0.000000 0.000000
							CHANNELS 3 Xrotation Yrotation Zrotation
							JOINT RightHand
							{
								OFFSET -23.009392 0.000000 0.000000
								CHANNELS 3 Xrotation Yrotation Zrotation
								JOINT RightHandThumb1
								{
									OFFSET -3.507191 -2.063065 3.133727
									CHANNELS 3 Xrotation Yrotation Zrotation
									JOINT RightHandThumb2
									{
										OFFSET -3.101337 -1.790558 1.790558
										CHANNELS 3 Xrotation Yrotation Zrotation
										JOINT RightHandThumb3
										{
											OFFSET -3.058640 -1.765907 1.765906
											CHANNELS 3 Xrotation Yrotation Zrotation
											End Site
											{
												OFFSET 0.415260 3.926476 -0.049563
											}
										}
									}
								}
								JOINT RightHandIndex1
								{
									OFFSET -11.334419 -0.901459 3.706815
									CHANNELS 3 Xrotation Yrotation Zrotation
									JOINT RightHandIndex2
									{
										OFFSET -3.283112 0.000000 0.000000
										CHANNELS 3 Xrotation Yrotation Zrotation
										JOINT RightHandIndex3
										{
											OFFSET -3.323853 0.000000 0.000000
											CHANNELS 3 Xrotation Yrotation Zrotation
											End Site
											{
												OFFSET 1.135597 3.097809 0.402452
											}
										}
									}
								}
								JOINT RightHandMiddle1
								{
									OFFSET -11.335861 0.000000 0.000000
									CHANNELS 3 Xrotation Yrotation Zrotation
									JOINT RightHandMiddle2
									{
										OFFSET -3.410492 0.000000 0.000000
										CHANNELS 3 Xrotation Yrotation Zrotation
										JOINT RightHandMiddle3
										{
											OFFSET -3.312172 0.000000 0.000000
											CHANNELS 3 Xrotation Yrotation Zrotation
											End Site
											{
												OFFSET 1.150200 3.080154 0.400270
											}
										}
									}
								}
								JOINT RightHandRing1
								{
									OFFSET -11.514786 -0.013176 -3.003090
									CHANNELS 3 Xrotation Yrotation Zrotation
									JOINT RightHandRing2
									{
										OFFSET -3.053307 0.000000 0.000000
										CHANNELS 3 Xrotation Yrotation Zrotation
										JOINT RightHandRing3
										{
											OFFSET -3.295807 0.000000 0.000000
											CHANNELS 3 Xrotation Yrotation Zrotation
											End Site
											{
												OFFSET 1.281006 3.013344 0.375733
											}
										}
									}
								}
								JOINT RightHandPinky1
								{
									OFFSET -10.518692 -0.960396 -5.730441
									CHANNELS 3 Xrotation Yrotation Zrotation
									JOINT RightHandPinky2
									{
										OFFSET -2.861649 0.000000 0.000000
										CHANNELS 3 Xrotation Yrotation Zrotation
										JOINT RightHandPinky3
										{
											OFFSET -2.863380 0.000000 0.000000
											CHANNELS 3 Xrotation Yrotation Zrotation
											End Site
											{
												OFFSET 0.843597 2.711159 0.369971
											}
										}
									}
								}
							}
							JOINT RSleeve
							{
								OFFSET -6.676277 -0.344902 -1.011730
								CHANNELS 3 Xrotation Yrotation Zrotation
								End Site
								{
									OFFSET 0.000000 14.885353 0.000000
								}
							}
						}
					}
				}
				JOINT Backpack
				{
					OFFSET 0.000000 -2.471497 36.677502
					CHANNELS 3 Xrotation Yrotation Zrotation
					End Site
					{
						OFFSET 0.000000 20.427315 0.000000
					}
				}
				JOINT Hood
				{
					OFFSET 0.000000 18.754097 -10.431000
					CHANNELS 3 Xrotation Yrotation Zrotation
					JOINT Hood1
					{
						OFFSET 0.000000 -5.011002 -7.685901
						CHANNELS 3 Xrotation Yrotation Zrotation
						End Site
						{
							OFFSET 0.000000 9.175140 0.000000
						}
					}
				}
				JOINT LHoodieString
				{
					OFFSET 5.250500 16.397697 3.089900
					CHANNELS 3 Xrotation Yrotation Zrotation
					JOINT LHoodieString1
					{
						OFFSET 0.257700 -6.364304 3.694600
						CHANNELS 3 Xrotation Yrotation Zrotation
						JOINT LHoodieString2
						{
							OFFSET 0.000000 -9.643799 2.679100
							CHANNELS 3 Xrotation Yrotation Zrotation
							End Site
							{
								OFFSET 0.000000 10.009018 0.000000
							}
						}
					}
				}
				JOINT RHoodieString
				{
					OFFSET -5.250500 16.397697 3.089900
					CHANNELS 3 Xrotation Yrotation Zrotation
					JOINT RHoodieString1
					{
						OFFSET -0.257700 -6.364304 3.694600
						CHANNELS 3 Xrotation Yrotation Zrotation
						JOINT RHoodieString2
						{
							OFFSET 0.000000 -9.643799 2.679100
							CHANNELS 3 Xrotation Yrotation Zrotation
							End Site
							{
								OFFSET 0.000000 10.009018 0.000000
							}
						}
					}
				}
			}
			JOINT LBackpack_Strap
			{
				OFFSET 15.223200 -7.719803 -6.610900
				CHANNELS 3 Xrotation Yrotation Zrotation
				End Site
				{
					OFFSET 0.000000 16.040596 0.000000
				}
			}
			JOINT RBackpack_Strap
			{
				OFFSET -15.223000 -7.719803 -6.610900
				CHANNELS 3 Xrotation Yrotation Zrotation
				End Site
				{
					OFFSET 0.000000 16.040596 0.000000
				}
			}
		}
	}
	JOINT BoyFacialAnim_Joint
	{
		OFFSET 1.000000 -82.208099 -1.550900
		CHANNELS 3 Xrotation Yrotation Zrotation
		End Site
		{
			OFFSET 0.000000 30.012791 0.000000
		}
	}
}
MOTION
Frames: 5
Frame Time: 0.033333
12.065431 80.248222 113.653740 0.447233 48.108366 -4.340863 0.000000 0.000001 -0.000000 -36.441259 15.011963 6.698930 44.173787 13.025296 1.105907 -3.374539 -4.685865 -1.122418 0.000000 -0.000001 -0.000000 0.000000 -0.000001 -0.000000 -0.000001 -0.000000 0.000000 -2.296538 -8.137940 -0.859895 18.071241 0.716181 -2.417316 -15.555317 -0.725299 6.680665 0.000000 0.000003 0.000000 0.000000 0.000003 0.000000 0.000000 -0.000002 0.000000 8.882629 5.026775 7.828687 -2.508530 7.064066 -6.557152 -2.713714 6.020628 -7.182918 4.221144 -1.827253 1.046888 -6.601202 0.441755 -4.368704 -0.000001 0.000001 -0.000000 -0.000001 0.000001 -0.000000 -0.000001 0.000001 -0.000000 -0.667400 -23.068650 3.424388 8.065419 1.091251 -74.286620 0.067201 -21.055028 -6.524823 4.051956 -8.946437 11.926866 -0.677482 18.474212 5.180664 5.055039 11.185546 1.674153 -0.000000 -0.000000 0.000001 1.273644 -0.683550 -19.557905 -0.039913 0.057438 -18.847352 -0.000002 -0.000002 -0.000002 -0.217042 -0.736152 -22.459327 0.012309 0.100960 -21.599725 0.000001 -0.000003 -0.000002 -1.069748 -1.062470 -25.379654 0.003576 0.053089 -24.889711 -0.000001 0.000001 -0.000004 -2.718557 -2.243825 -31.197907 0.037779 0.016836 -27.470427 0.000003 -0.000001 0.000001 -0.000001 -0.000000 -0.000001 -0.485505 -5.095532 11.762663 5.034246 9.919755 64.702703 8.725330 21.249412 -2.155832 -19.928513 0.783450 -14.099663 -0.696665 -18.886646 -5.157132 4.967223 -11.157748 -1.804985 -0.000000 0.000000 0.000004 1.189104 0.843723 20.279708 -0.034286 -0.068376 19.057573 0.000002 -0.000000 0.000000 -0.201543 1.022197 23.071266 0.014580 -0.101579 21.571520 0.000002 0.000002 0.000002 -1.073220 1.616098 26.209490 -0.003625 -0.055598 24.750898 -0.000000 -0.000001 0.000005 -2.684385 2.856287 31.718797 0.005307 -0.040913 27.376240 0.000001 0.000001 0.000000 0.000000 -0.000000 -0.000002 0.000000 -0.000001 -0.000000 0.000000 -0.000001 -0.000000 0.000000 -0.000001 -0.000000 0.000000 -0.000001 -0.000000 0.000000 -0.000001 0.000000 -0.000000 -0.000001 0.000000 0.000000 -0.000001 -0.000000 0.000000 -0.000001 0.000000 -0.000000 -0.000001 0.000000 -0.000000 0.000000 -0.000000 -0.000000 0.000000 -0.000000 0.000000 0.000001 -0.000000 
13.380646 80.117722 115.485107 1.426737 49.886189 -5.124555 0.000000 0.000000 -0.000000 -35.894208 17.306781 5.558201 33.102939 17.312091 1.101812 -1.243089 -6.711153 2.666835 -0.000000 0.000001 -0.000001 -0.000000 0.000001 -0.000000 -0.000000 -0.000000 -0.000000 0.199344 -8.710614 0.177838 16.563397 -0.832934 -2.469350 -16.995384 -0.652506 5.418883 -0.000000 0.000004 -0.000000 -0.000000 0.000004 -0.000000 -0.000001 -0.000004 0.000001 9.152247 5.273902 7.453225 -2.759741 7.531084 -6.652370 -2.944013 6.392117 -7.357591 3.101727 -1.190500 1.609929 -5.651707 1.194764 -4.387755 -0.000000 0.000001 -0.000000 -0.000000 0.000001 -0.000000 -0.000000 0.000001 -0.000000 -0.460782 -21.962151 3.989211 9.289633 2.605100 -75.110142 -0.585629 -22.155580 -6.210290 3.089226 -6.796974 10.694444 -0.722638 19.426253 5.128062 4.817157 11.135298 1.966900 0.000002 0.000002 0.000001 1.041798 -1.060056 -21.225557 -0.042648 0.044721 -19.333200 0.000000 0.000001 -0.000002 -0.220937 -1.399571 -23.864517 0.003387 0.047236 -21.534736 -0.000002 0.000000 -0.000003 -1.123002 -2.244563 -27.292406 0.002854 0.026321 -24.554916 -0.000003 0.000000 -0.000007 -2.685592 -3.654265 -32.397766 0.034753 -0.000844 -27.252938 0.000000 -0.000002 -0.000001 0.000001 -0.000000 -0.000000 0.033092 -7.068731 13.103778 1.657520 13.686500 64.425910 8.192143 22.428039 -1.952546 -17.680602 0.847950 -14.059410 -0.637913 -17.534439 -5.240043 5.305182 -11.227622 -1.388103 0.000001 -0.000000 0.000005 1.495638 0.293958 17.910851 -0.027407 -0.091116 18.366662 -0.000000 0.000001 0.000005 -0.231903 0.079354 21.070169 0.025534 -0.178351 21.663965 0.000001 0.000001 -0.000000 -1.083871 -0.064048 23.479612 -0.002310 -0.094039 25.227135 -0.000001 -0.000003 -0.000000 -2.797533 0.854593 29.993143 0.006746 -0.069737 27.685506 -0.000001 -0.000003 -0.000000 0.000000 -0.000002 0.000000 0.000000 -0.000001 -0.000001 0.000000 -0.000001 -0.000001 0.000000 -0.000001 -0.000001 0.000000 -0.000001 -0.000001 0.000000 -0.000001 -0.000000 0.000000 -0.000000 0.000000 0.000000 -0.000001 -0.000001 0.000000 -0.000001 -0.000000 0.000000 -0.000000 0.000000 0.000000 0.000000 -0.000000 0.000000 0.000000 -0.000000 0.000000 0.000000 -0.000000 
14.904112 79.926422 117.290054 2.495797 51.256741 -6.258483 0.000000 0.000001 -0.000000 -35.713611 16.908357 4.313176 24.175914 17.825820 1.117133 -1.098959 -6.163584 2.599208 -0.000000 -0.000000 -0.000001 -0.000000 -0.000000 -0.000000 -0.000000 -0.000000 0.000000 1.967502 -8.929058 1.209429 16.130694 -2.115730 -2.557657 -17.667182 -0.587906 4.972709 0.000000 0.000000 0.000000 0.000000 0.000000 0.000000 0.000003 0.000002 -0.000001 9.309141 5.597730 7.015003 -2.978491 7.840659 -6.485136 -3.130830 6.694991 -7.240921 2.206615 -0.305389 1.541859 -5.136980 1.890131 -3.967470 0.000000 0.000002 -0.000000 0.000000 0.000002 -0.000000 0.000000 0.000002 -0.000000 -0.655616 -20.623208 3.306472 10.056633 4.315649 -74.956668 -1.014121 -22.250354 -6.195931 2.296187 -5.351748 10.037568 -0.758935 20.124601 5.094272 4.642811 11.097691 2.181050 0.000001 -0.000001 0.000000 0.858831 -1.327530 -22.448783 -0.044917 0.036329 -19.689140 -0.000001 0.000001 -0.000003 -0.244513 -1.885574 -24.892392 -0.003185 0.007918 -21.487143 -0.000000 0.000000 -0.000005 -1.212739 -3.108405 -28.689209 0.002326 0.006828 -24.309683 -0.000000 0.000001 -0.000000 -2.699315 -4.688907 -33.266501 0.032092 -0.011433 -27.093556 -0.000001 0.000002 -0.000003 0.000003 0.000000 0.000001 0.600850 -8.905742 14.053196 -1.007324 18.532614 63.493814 7.350577 24.463362 -1.551258 -16.120694 1.696743 -13.497127 -0.581746 -15.974971 -5.353724 5.695583 -11.305204 -0.905000 0.000001 0.000001 -0.000006 1.794982 -0.370293 15.177374 -0.020058 -0.117744 17.567834 0.000001 0.000001 0.000004 -0.349469 -1.004834 18.747718 0.038195 -0.267119 21.770798 0.000002 0.000001 0.000002 -1.298494 -1.994861 20.293653 -0.000787 -0.138543 25.777798 -0.000001 -0.000001 0.000004 -3.081457 -1.443839 27.946754 0.008474 -0.103325 28.043005 0.000001 0.000000 -0.000001 0.000000 0.000002 0.000002 -0.000000 -0.000001 -0.000001 -0.000000 -0.000001 -0.000001 -0.000000 -0.000001 -0.000001 -0.000000 -0.000001 -0.000001 -0.000000 -0.000001 -0.000001 -0.000000 -0.000003 0.000000 -0.000000 -0.000001 -0.000001 -0.000000 -0.000001 -0.000001 -0.000000 -0.000003 0.000000 0.000000 -0.000001 -0.000000 0.000000 -0.000001 -0.000000 0.000000 0.000001 -0.000000 
16.611696 79.671738 119.114388 3.281223 52.728579 -7.334584 -0.000000 0.000002 0.000000 -35.927857 14.503150 3.113027 17.968225 18.540398 1.698968 -0.310527 -4.340540 3.788583 -0.000001 0.000000 -0.000001 -0.000001 0.000000 -0.000001 -0.000001 0.000001 0.000001 2.990531 -9.052540 2.024163 17.432834 -3.166986 -2.624421 -17.510416 -0.680784 5.652905 0.000000 -0.000000 0.000000 0.000000 -0.000000 0.000000 0.000002 0.000003 -0.000001 9.632060 5.811057 6.462593 -3.228854 7.821319 -6.256207 -3.348134 6.772350 -7.009454 2.042075 0.408671 1.730025 -5.478440 2.496377 -3.558445 0.000000 0.000001 0.000001 0.000000 0.000001 0.000001 0.000000 0.000001 0.000001 -0.830584 -19.183237 2.521591 10.269609 6.175460 -74.457736 -0.924049 -21.555568 -6.387709 1.532485 -3.889068 9.062642 -0.779858 20.504636 5.077659 4.548046 11.076879 2.297379 0.000001 -0.000001 -0.000000 0.754854 -1.469823 -23.114412 -0.046690 0.032975 -19.882706 -0.000000 -0.000001 -0.000002 -0.264716 -2.149629 -25.450830 -0.006717 -0.011865 -21.461213 -0.000006 -0.000000 -0.000003 -1.279439 -3.576709 -29.447462 0.002121 -0.000417 -24.176421 -0.000004 -0.000002 0.000001 -2.720126 -5.251705 -33.735571 0.029894 -0.017311 -27.006961 -0.000000 0.000001 0.000002 0.000002 -0.000000 0.000000 0.881717 -10.174720 14.816487 -3.090947 23.338196 62.553659 6.775593 26.300062 -1.522165 -14.902884 2.840499 -12.482581 -0.535234 -14.330034 -5.493996 6.108206 -11.383396 -0.392486 -0.000000 -0.000001 0.000002 2.045485 -1.101818 12.290837 -0.013063 -0.146202 16.722776 -0.000000 0.000000 0.000004 -0.569747 -2.139100 16.277828 0.051548 -0.361012 21.883824 -0.000000 0.000001 0.000002 -1.761746 -4.003837 16.877121 0.000873 -0.185803 26.360268 -0.000001 0.000006 0.000001 -3.562949 -3.846229 25.711747 0.010293 -0.138721 28.421233 -0.000000 0.000000 0.000000 -0.000001 -0.000002 -0.000000 0.000000 -0.000000 -0.000000 0.000000 -0.000000 -0.000000 0.000000 -0.000000 -0.000000 0.000000 -0.000000 -0.000000 0.000000 -0.000000 0.000000 0.000000 -0.000000 -0.000000 0.000000 -0.000000 -0.000000 0.000000 -0.000000 0.000000 0.000000 -0.000000 -0.000000 0.000001 -0.000002 0.000000 0.000001 -0.000002 0.000000 -0.000000 0.000002 0.000000 
18.541346 79.325096 120.948494 3.509388 53.722006 -7.869455 -0.000000 0.000003 -0.000000 -36.222344 11.945343 2.474199 14.966889 21.263304 2.815552 -1.083348 -3.159407 2.591066 -0.000001 0.000000 -0.000000 -0.000001 0.000000 0.000000 0.000001 0.000000 0.000001 3.871823 -9.049594 2.337997 19.543777 -3.266498 -2.614427 -16.885257 -0.874318 6.845843 0.000000 -0.000002 0.000000 0.000000 -0.000002 0.000000 0.000001 -0.000003 0.000002 9.971038 6.065257 5.426105 -3.342012 8.102349 -5.821342 -3.459774 7.024798 -6.639027 0.717412 0.771332 1.782855 -4.675699 2.567835 -2.897512 -0.000000 -0.000001 -0.000001 -0.000000 -0.000001 -0.000001 -0.000000 -0.000001 -0.000001 -0.974670 -18.449383 2.071957 10.121511 8.139756 -74.182487 -0.521331 -20.148163 -6.464319 0.842691 -2.448571 7.875950 -0.781035 20.555422 5.071696 4.533215 11.073377 2.311632 0.000000 0.000001 0.000002 0.739290 -1.487719 -23.202906 -0.048251 0.030225 -19.908412 0.000001 0.000002 -0.000003 -0.270398 -2.184891 -25.525086 -0.008190 -0.019468 -21.456177 0.000002 0.000002 -0.000003 -1.289159 -3.638831 -29.548102 0.002024 -0.003795 -24.158794 -0.000004 0.000002 -0.000002 -2.726063 -5.326856 -33.797945 0.028102 -0.019755 -26.995495 -0.000005 -0.000001 -0.000000 -0.000000 0.000000 0.000000 1.653882 -11.555510 15.613193 -5.183100 27.801616 61.356614 7.319495 28.356983 -2.101066 -14.169326 3.750013 -11.904156 -0.501428 -12.720100 -5.650787 6.512787 -11.456339 0.112093 0.000001 -0.000002 0.000002 2.223315 -1.843909 9.460949 -0.006753 -0.174817 15.893116 -0.000001 -0.000000 0.000005 -0.881428 -3.233813 13.837371 0.064685 -0.453201 21.994741 -0.000000 0.000004 0.000002 -2.452304 -5.921316 13.465444 0.002532 -0.232286 26.932064 -0.000000 0.000001 0.000002 -4.219843 -6.163710 23.436645 0.012101 -0.173445 28.792536 0.000001 0.000001 -0.000001 0.000000 0.000004 -0.000003 0.000001 -0.000001 -0.000000 0.000001 -0.000001 -0.000000 0.000001 -0.000001 -0.000000 0.000001 -0.000001 -0.000000 0.000001 -0.000001 0.000001 -0.000000 -0.000001 0.000001 0.000001 -0.000001 -0.000000 0.000001 -0.000001 0.000001 -0.000000 -0.000001 0.000001 0.000000 -0.000001 0.000000 0.000000 -0.000001 0.000000 -0.000000 0.000003 -0.000000 
